/* XPM */
static char *bell_delete[] = {
/* columns rows colors chars-per-pixel */
"13 13 106 2",
"   c #BC4903",
".  c #BD4A03",
"X  c #B74E0B",
"o  c #AF520A",
"O  c #BC5E12",
"+  c #B15C1B",
"@  c #A66B21",
"#  c #C54D02",
"$  c #C44E04",
"%  c #C1510B",
"&  c #C5530E",
"*  c #D35C00",
"=  c #C05112",
"-  c #C26016",
";  c #EA6E00",
":  c #EE7612",
">  c #CA7E25",
",  c #D17725",
"<  c #D87531",
"1  c #DA7A3A",
"2  c #B1822E",
"3  c #B5832C",
"4  c #B8882A",
"5  c #BA8C2B",
"6  c #D2871F",
"7  c #C78E28",
"8  c #D58922",
"9  c #CF9425",
"0  c #CE9E27",
"q  c #C59128",
"w  c #C5902C",
"e  c #C2952C",
"r  c #CB9E2E",
"t  c #CF9E2D",
"y  c #D79925",
"u  c #D8803D",
"i  c #C19435",
"p  c #C29436",
"a  c #C79D34",
"s  c #CE9C35",
"d  c #C39739",
"f  c #C79E38",
"g  c #D29F33",
"h  c #EE923F",
"j  c #D2A42D",
"k  c #D9A42D",
"l  c #DCA62E",
"z  c #DAAF2C",
"x  c #DCB32C",
"c  c #D4A137",
"v  c #DAA632",
"b  c #DBA638",
"n  c #DBB332",
"m  c #DFBD38",
"M  c #E0A627",
"N  c #E1A92A",
"B  c #E2AE2E",
"V  c #E0AC37",
"C  c #E3B336",
"Z  c #EAB333",
"A  c #E9B530",
"S  c #EBB736",
"D  c #E4B53A",
"F  c #EAB63B",
"G  c #E8B23C",
"H  c #EBBC39",
"J  c #E2C13E",
"K  c #C59B45",
"L  c #C49749",
"P  c #F29448",
"I  c #DBB85B",
"U  c #DEBF5D",
"Y  c #E6BD42",
"T  c #ECBB45",
"R  c #D7B365",
"E  c #DFBC65",
"W  c #FFA863",
"Q  c #F1A36E",
"!  c #EFA172",
"~  c #EFA77C",
"^  c #F1A779",
"/  c #FFB27F",
"(  c #DFC057",
")  c #E2C146",
"_  c #EAC245",
"`  c #E2C348",
"'  c #F0C84B",
"]  c #E6C054",
"[  c #E7CB5E",
"{  c #E8CD64",
"}  c #E9CE6B",
"|  c #EBD068",
" . c #EAD16F",
".. c #F2D068",
"X. c #E3C573",
"o. c #EBD17B",
"O. c #ECD47F",
"+. c #F6DA76",
"@. c #F2DD74",
"#. c #F4D980",
"$. c #F5DD8A",
"%. c #FAC490",
"&. c #FFC798",
"*. c #F1DB93",
"=. c #F7E59C",
"-. c None",
/* pixels */
"-.-.-.-.-.-.-.-.-.-.x 0 -.",
"-.-.-.-.-.-.-.-.-.z v w -.",
"-.-.-.-.-.m } o.] V 7 -.-.",
"-.-.-.-.` O.$...T G g -.-.",
"-.-.-.{ *.#.' H Z S b -.-.",
"-.J | =.+._ C l N Z c -.-.",
"n @. .) Y D k 9 N F g -.-.",
"j [ U i d t B y 8 , - X -.",
"-.r ( L X.I q 6 u ! Q 1 X ",
"-.-.e K R E 2 o ^ / W P & ",
"-.-.-.4 3 i f O ~ &.%.P # ",
"-.-.-.-.-.5 a > < : ; *   ",
"-.-.-.-.-.-.-.@ + % #   -."
};
