/* XPM */
static char *bell_add[] = {
/* columns rows colors chars-per-pixel */
"13 13 104 2",
"   c #636E1E",
".  c #427720",
"X  c #447923",
"o  c #4F7D2C",
"O  c #4D7E2D",
"+  c #5E7D33",
"@  c #6B7D28",
"#  c #6F782F",
"$  c #986C20",
"%  c #4F802F",
"&  c #679839",
"*  c #699D43",
"=  c #71A547",
"-  c #8A8A29",
";  c #B2812D",
":  c #B5832C",
">  c #B8882A",
",  c #BA8C2B",
"<  c #B29931",
"1  c #B99C35",
"2  c #C78E28",
"3  c #C69127",
"4  c #CF9425",
"5  c #CE9E27",
"6  c #C5902C",
"7  c #C2952C",
"8  c #CB9E2E",
"9  c #CF9E2D",
"0  c #D59A25",
"q  c #C19435",
"w  c #C29436",
"e  c #C89C34",
"r  c #C99D37",
"t  c #C39739",
"y  c #D29F33",
"u  c #D09B34",
"i  c #D2A42D",
"p  c #D9A42D",
"a  c #DCA62E",
"s  c #DAAF2C",
"d  c #DCB32C",
"f  c #D4A137",
"g  c #DAA632",
"h  c #DBA638",
"j  c #DBB332",
"k  c #DFBD38",
"l  c #E0A527",
"z  c #E1A92A",
"x  c #E2AE2E",
"c  c #E0AC37",
"v  c #E3B336",
"b  c #EAB333",
"n  c #E9B530",
"m  c #EBB736",
"M  c #E4B53A",
"N  c #EBB53A",
"B  c #E8B23C",
"V  c #EBBC39",
"C  c #E2C13E",
"Z  c #829044",
"A  c #9AA151",
"S  c #92AD5F",
"D  c #96BE7A",
"F  c #C59B45",
"G  c #C49749",
"H  c #DBB85B",
"J  c #DEBF5D",
"K  c #E6BD42",
"L  c #ECBB45",
"P  c #D7B365",
"I  c #DFBC65",
"U  c #9AC277",
"Y  c #9CC47A",
"T  c #DFC057",
"R  c #E2C146",
"E  c #EAC245",
"W  c #E2C348",
"Q  c #F0C84B",
"!  c #E6C054",
"~  c #E7CB5E",
"^  c #E8CD64",
"/  c #E9CE6B",
"(  c #EBD068",
")  c #EAD16F",
"_  c #F2D068",
"`  c #E3C573",
"'  c #EBD17B",
"]  c #ECD47F",
"[  c #F6DA76",
"{  c #F2DD74",
"}  c #A4C889",
"|  c #A7C98F",
" . c #ADCD94",
".. c #AFD093",
"X. c #B0D094",
"o. c #F4D980",
"O. c #F5DD8A",
"+. c #F1DB93",
"@. c #F7E59C",
"#. c #D9ECC9",
"$. c #D9EACD",
"%. c #DBEACF",
"&. c #E9F2E2",
"*. c None",
/* pixels */
"*.*.*.*.*.*.*.*.*.*.d 5 *.",
"*.*.*.*.*.*.*.*.*.d g 6 *.",
"*.*.*.*.*.k / ' ! h 2 *.*.",
"*.*.*.*.W ] O._ L B f *.*.",
"*.*.*.^ +.o.Q V n m h *.*.",
"*.C ( @.[ E v a z b f *.*.",
"j { ) R K M p 4 l N u *.*.",
"i ~ J q t 9 x 0 1 A Z + *.",
"*.8 T G ` H 3 < S  .| * . ",
"*.*.7 F P I : # } #.%.Y o ",
"*.*.*.> : q r @ D $.&.X.% ",
"*.*.*.*.*.> r - & U X.= X ",
"*.*.*.*.*.*.*.$   o % X *."
};
